<?xml version="1.0" encoding="UTF-8" standalone="no" ?>
<!DOCTYPE svg PUBLIC "-//W3C//DTD SVG 1.1//EN" "http://www.w3.org/Graphics/SVG/1.1/DTD/svg11.dtd">
<svg xmlns="http://www.w3.org/2000/svg" xmlns:xlink="http://www.w3.org/1999/xlink" version="1.1" width="257.79999999999995" height="504.90025" viewBox="138.5 4.499875000000031 257.79999999999995 504.90025" xml:space="preserve">
<desc>Created with Fabric.js 4.6.0</desc>
<defs>
</defs>
<g transform="matrix(1 0 0 1 267.4 256.95)" id="ZxUM9RvI5soXh1KT2hY-x"  >
<path style="stroke: none; stroke-width: 1; stroke-dasharray: none; stroke-linecap: butt; stroke-dashoffset: 0; stroke-linejoin: miter; stroke-miterlimit: 4; fill: rgb(255,255,255); fill-rule: nonzero; opacity: 1;" vector-effect="non-scaling-stroke"  transform=" translate(0, 0)" d="M 40.9 251.55012 C 38.4 251.65012 36.8 251.85012 35.199999999999996 251.85012 C 0.9999999999999929 251.85012 -33.1 251.75012 -67.30000000000001 251.95012 C -72.10000000000001 251.95012 -73.4 250.65012 -73.4 245.85012 C -73.30000000000001 166.25012 -73.30000000000001 86.55011999999999 -73.30000000000001 6.950119999999998 C -73.30000000000001 4.850119999999999 -73.30000000000001 2.750119999999998 -73.30000000000001 0.050119999999997944 C -91.9 0.050119999999997944 -110.00000000000001 0.050119999999997944 -128.4 0.050119999999997944 C -128.4 -28.34988 -128.4 -56.24988 -128.4 -84.94988000000001 C -126.5 -84.94988000000001 -124.7 -84.94988000000001 -123 -84.94988000000001 C -108 -84.94988000000001 -93 -85.04988 -78 -84.84988000000001 C -74.2 -84.84988000000001 -73.2 -85.94988000000001 -73.2 -89.64988000000001 C -73.4 -111.94988000000001 -73.4 -134.34988 -73.2 -156.64988 C -73.10000000000001 -172.24988 -70.60000000000001 -187.44988 -63.400000000000006 -201.54988 C -53.10000000000001 -221.44988 -36.800000000000004 -234.34987999999998 -16.200000000000003 -242.34987999999998 C 0.5999999999999979 -248.94987999999998 18.299999999999997 -251.34987999999998 36.099999999999994 -251.64988 C 65.1 -252.04988 94.1 -251.84987999999998 123.1 -251.94988 C 125.8 -251.94988 128 -252.04988 128 -248.24988000000002 C 127.9 -220.74988000000002 127.9 -193.24988000000002 127.9 -165.74988000000002 C 127.9 -165.44988 127.80000000000001 -165.14988000000002 127.4 -163.84988 C 125.7 -163.84988 123.80000000000001 -163.84988 121.9 -163.84988 C 103.9 -163.84988 85.9 -163.94988 67.9 -163.84988 C 57.50000000000001 -163.84988 49.10000000000001 -159.64988000000002 43.800000000000004 -150.54988 C 42.2 -147.84988 41.2 -144.34988 41.2 -141.14988 C 40.900000000000006 -124.14988 41.2 -107.14988 41 -90.14988 C 41 -86.14988 42.2 -85.04988 46.1 -85.04988 C 71.1 -85.24988 96.1 -85.14988 121.1 -85.14988 C 123.1 -85.14988 125 -85.14988 128.4 -85.14988 C 124.9 -56.549879999999995 121.5 -28.549879999999995 118 -0.24987999999999033 C 92 -0.24987999999999033 66.7 -0.24987999999999033 40.900000000000006 -0.24987999999999033 C 40.900000000000006 83.85012 40.900000000000006 167.45012 40.900000000000006 251.55012000000002 z" stroke-linecap="round" />
</g>
</svg>