<?xml version="1.0" encoding="UTF-8" standalone="no" ?>
<!DOCTYPE svg PUBLIC "-//W3C//DTD SVG 1.1//EN" "http://www.w3.org/Graphics/SVG/1.1/DTD/svg11.dtd">
<svg xmlns="http://www.w3.org/2000/svg" xmlns:xlink="http://www.w3.org/1999/xlink" version="1.1" width="439.534" height="439.536" viewBox="-0.4969999999999857 -0.49799999999999045 439.534 439.536" xml:space="preserve">
<desc>Created with Fabric.js 4.6.0</desc>
<defs>
</defs>
<g transform="matrix(1 0 0 1 219.27 219.27)" id="cp9YmhXqaqBsynZsWxAWo"  >
<path style="stroke: none; stroke-width: 1; stroke-dasharray: none; stroke-linecap: butt; stroke-dashoffset: 0; stroke-linejoin: miter; stroke-miterlimit: 4; fill: rgb(255,255,255); fill-rule: nonzero; opacity: 1;" vector-effect="non-scaling-stroke"  transform=" translate(-219.27, -219.27)" d="M 421.981 16.562 C 410.941 5.519 397.711 0 382.298 0 L 56.248 0 C 40.83 0 27.604 5.521 16.561 16.562 C 5.52 27.6 0.001 40.828 0.001 56.243 L 0.001 382.29 C 0.001 397.70300000000003 5.519 410.934 16.561 421.973 C 27.604 433.01300000000003 40.833 438.536 56.248 438.536 L 382.294 438.536 C 397.704 438.536 410.938 433.013 421.97799999999995 421.973 C 433.02099999999996 410.934 438.53499999999997 397.70300000000003 438.53499999999997 382.29 L 438.53499999999997 56.243 C 438.534 40.825 433.021 27.604 421.981 16.562 z M 157.462 158.025 C 174.68599999999998 141.373 195.386 133.043 219.559 133.043 C 243.91899999999998 133.043 264.712 141.37300000000002 281.94 158.025 C 299.168 174.68 307.777 194.81 307.777 218.411 C 307.777 242.00900000000001 299.168 262.14 281.94 278.79 C 264.712 295.449 243.926 303.778 219.559 303.778 C 195.387 303.778 174.689 295.442 157.462 278.79 C 140.23399999999998 262.13800000000003 131.62099999999998 242.00900000000001 131.62099999999998 218.41100000000003 C 131.621 194.81 140.234 174.681 157.462 158.025 z M 388.865 370.589 C 388.865 375.534 387.147 379.672 383.724 383.005 C 380.291 386.335 376.205 388.001 371.442 388.001 L 66.24200000000002 388.001 C 61.29400000000002 388.001 57.15100000000002 386.335 53.82300000000002 383.005 C 50.49000000000002 379.679 48.825000000000024 375.534 48.825000000000024 370.589 L 48.825000000000024 185.575 L 89.08 185.575 C 85.27499999999999 197.56799999999998 83.372 210.03699999999998 83.372 222.97699999999998 C 83.372 259.53 96.694 290.692 123.34100000000001 316.48799999999994 C 149.991 342.27399999999994 182.062 355.17299999999994 219.558 355.17299999999994 C 244.302 355.17299999999994 267.14099999999996 349.2699999999999 288.085 337.46999999999997 C 309.022 325.66299999999995 325.57099999999997 309.631 337.76099999999997 289.35799999999995 C 349.94399999999996 269.08599999999996 356.03499999999997 246.95799999999994 356.03499999999997 222.97799999999995 C 356.03499999999997 210.03799999999995 354.12499999999994 197.57199999999995 350.32 185.57599999999996 L 388.86699999999996 185.57599999999996 L 388.86699999999996 370.59 L 388.865 370.59 z M 388.865 115.626 C 388.865 121.146 386.962 125.81 383.149 129.616 C 379.344 133.425 374.683 135.32700000000003 369.16 135.32700000000003 L 319.48400000000004 135.32700000000003 C 313.96700000000004 135.32700000000003 309.29900000000004 133.42400000000004 305.494 129.616 C 301.68800000000005 125.81000000000002 299.786 121.14600000000002 299.786 115.62600000000002 L 299.786 68.522 C 299.786 63.19200000000001 301.688 58.577000000000005 305.494 54.67400000000001 C 309.3 50.77300000000001 313.968 48.82000000000001 319.48400000000004 48.82000000000001 L 369.16 48.82000000000001 C 374.68300000000005 48.82000000000001 379.345 50.772000000000006 383.149 54.67400000000001 C 386.961 58.577000000000005 388.865 63.19200000000001 388.865 68.522 L 388.865 115.626 z" stroke-linecap="round" />
</g>
</svg>