<?xml version="1.0" encoding="UTF-8" standalone="no" ?>
<!DOCTYPE svg PUBLIC "-//W3C//DTD SVG 1.1//EN" "http://www.w3.org/Graphics/SVG/1.1/DTD/svg11.dtd">
<svg xmlns="http://www.w3.org/2000/svg" xmlns:xlink="http://www.w3.org/1999/xlink" version="1.1" width="361.99622559670723" height="504.2971404701709" viewBox="84.89188720164637 5.381429764914515 361.99622559670723 504.2971404701709" xml:space="preserve">
<desc>Created with Fabric.js 4.6.0</desc>
<defs>
</defs>
<g transform="matrix(1 0 0 1 265.89 257.53)" id="jdktj79tMEGtMA-cQVyBd"  >
<path style="stroke: none; stroke-width: 1; stroke-dasharray: none; stroke-linecap: butt; stroke-dashoffset: 0; stroke-linejoin: miter; stroke-miterlimit: 4; fill: rgb(255,255,255); fill-rule: nonzero; opacity: 1;" vector-effect="non-scaling-stroke"  transform=" translate(-265.89, -257.53)" d="M 236.3 335.8 C 234.4 343.5 232.70000000000002 350.3 231 357.1 C 229.1 364.90000000000003 227.3 372.70000000000005 225.5 380.5 C 223.3 390 221.6 399.6 218.8 408.8 C 214.8 421.90000000000003 210.8 435 205.4 447.5 C 200.4 459 193.8 469.9 187.5 480.8 C 182.3 489.7 176.4 498.3 170.6 506.90000000000003 C 169.7 508.20000000000005 167.2 509.50000000000006 166.1 509.1 C 164.7 508.6 163.1 506.40000000000003 162.9 504.8 C 159.1 474.5 157.1 444 161.1 413.6 C 162.7 401.3 166 389.3 168.5 377.1 C 170.1 369.1 171.7 361 173.4 352.90000000000003 C 175.5 343.00000000000006 177.70000000000002 333.00000000000006 179.9 323.1 C 183.1 308.5 186.4 294 189.70000000000002 279.40000000000003 C 192.4 267.70000000000005 195.00000000000003 255.90000000000003 197.9 244.20000000000005 C 199.3 238.60000000000005 196.4 234.00000000000006 195.1 229.00000000000006 C 190.79999999999998 211.80000000000007 188.1 194.70000000000005 191.29999999999998 176.80000000000007 C 193.6 163.90000000000006 196.99999999999997 151.60000000000008 204.29999999999998 140.70000000000007 C 213.79999999999998 126.50000000000007 226.6 117.20000000000007 244.7 118.20000000000007 C 260.2 119.10000000000008 271 129.20000000000007 275 143.50000000000009 C 279.5 159.3000000000001 277.5 175.10000000000008 273.4 190.7000000000001 C 269 207.7000000000001 264.29999999999995 224.5000000000001 260 241.5000000000001 C 257.3 252.1000000000001 253.4 262.7000000000001 252.8 273.5000000000001 C 251.9 289.60000000000014 258.2 303.7000000000001 272.3 312.8000000000001 C 283.5 320.0000000000001 295.40000000000003 321.40000000000015 308.6 318.2000000000001 C 326.1 313.9000000000001 338.20000000000005 303.0000000000001 348.40000000000003 289.2000000000001 C 360.50000000000006 272.9000000000001 367.3 254.4000000000001 372.6 234.9000000000001 C 379.1 210.7000000000001 381.6 186.3000000000001 381.1 161.4000000000001 C 380.70000000000005 138.4000000000001 374.6 117.1000000000001 361.6 98.1000000000001 C 351.8 83.90000000000009 338.90000000000003 73.3000000000001 322.90000000000003 66.3000000000001 C 312.70000000000005 61.8000000000001 302.6 57.9000000000001 291.40000000000003 57.4000000000001 C 279.3 56.9000000000001 267.1 54.8000000000001 255.20000000000005 56.0000000000001 C 219.30000000000004 59.9000000000001 189.60000000000005 75.7000000000001 167.20000000000005 104.5000000000001 C 158.30000000000004 116.0000000000001 151.20000000000005 128.5000000000001 146.50000000000006 142.0000000000001 C 139.30000000000007 162.80000000000013 136.10000000000005 184.40000000000012 138.20000000000005 206.5000000000001 C 139.70000000000005 222.0000000000001 144.20000000000005 236.90000000000012 154.40000000000003 248.90000000000012 C 161.40000000000003 257.10000000000014 160.10000000000002 265.10000000000014 157.70000000000005 273.9000000000001 C 156.40000000000003 278.5000000000001 155.20000000000005 283.1000000000001 154.20000000000005 287.80000000000007 C 152.50000000000006 296.20000000000005 147.80000000000004 300.50000000000006 138.10000000000005 295.80000000000007 C 118.70000000000005 286.4000000000001 106.40000000000005 270.9000000000001 97.80000000000005 251.70000000000007 C 85.80000000000005 224.80000000000007 83.70000000000006 196.4000000000001 86.50000000000006 167.80000000000007 C 89.80000000000005 135.40000000000006 102.30000000000005 106.10000000000007 121.50000000000006 79.80000000000007 C 135.40000000000006 60.80000000000007 152.70000000000005 45.40000000000007 172.90000000000006 33.30000000000007 C 188.70000000000007 23.800000000000068 205.50000000000006 17.10000000000007 223.30000000000007 12.500000000000068 C 246.40000000000006 6.5000000000000675 269.80000000000007 4.700000000000068 293.30000000000007 6.600000000000067 C 310.9000000000001 8.000000000000068 327.9000000000001 12.200000000000067 344.4000000000001 19.000000000000068 C 372.9000000000001 30.800000000000068 396.2000000000001 48.90000000000006 414.4000000000001 73.60000000000007 C 425.2000000000001 88.30000000000007 433.5000000000001 104.40000000000006 438.9000000000001 122.00000000000006 C 442.1000000000001 132.40000000000006 444.80000000000007 142.80000000000007 445.1000000000001 153.70000000000005 C 445.50000000000006 166.00000000000006 446.9000000000001 178.30000000000004 446.2000000000001 190.40000000000003 C 445.5000000000001 203.30000000000004 442.9000000000001 216.20000000000005 440.9000000000001 229.00000000000003 C 437.6000000000001 250.20000000000002 430.5000000000001 270.20000000000005 421.0000000000001 289.3 C 412.8000000000001 305.7 402.5000000000001 320.6 389.2000000000001 333.5 C 375.8000000000001 346.5 360.4000000000001 356.2 342.8000000000001 362.6 C 326.10000000000014 368.70000000000005 309.0000000000001 370.90000000000003 291.60000000000014 368.8 C 270.90000000000015 366.2 253.40000000000015 356.90000000000003 240.30000000000013 340.1 C 239.4 339.1 238 337.7 236.3 335.8 z" stroke-linecap="round" />
</g>
</svg>